<?xml version="1.0" encoding="UTF-8"?>
<svg xmlns="http://www.w3.org/2000/svg" version="1.1" viewBox="0 0 2000 2000">
  <defs>
    <style>
      .cls-1 {
        fill: #fdfeff;
      }

      .cls-2 {
        fill: #0171c4;
      }
    </style>
  </defs>
  <!-- Generator: Adobe Illustrator 28.7.1, SVG Export Plug-In . SVG Version: 1.2.0 Build 142)  -->
  <g>
    <g id="Layer_2">
      <g>
        <g>
          <path d="M745.19,1012.49h0c-6.31,10.92-20.27,14.66-31.19,8.36l-337.96-195.12c-10.92-6.31-14.66-20.27-8.36-31.19h0c6.31-10.92,20.27-14.66,31.19-8.36l337.96,195.12c10.92,6.31,14.66,20.27,8.36,31.19Z"/>
          <path class="cls-2" d="M1000.71,1410.98h-.78c-1.38.32-2.52-.94-3.9-.58-1.01-.25-2.01-.55-3.03-.73-13.54-2.42-27.08-4.86-40.64-7.22-18.54-3.23-37.03-6.73-55.47-10.5-24.54-5.02-49-10.41-73.4-16.04-27.95-6.45-55.73-13.54-83.19-21.88-50.53-15.34-99.59-34.39-146.67-58.4-43.39-22.13-84.34-48.11-122.99-77.73-3.41-2.62-6.56-5.52-9.46-8.69-6.79-7.44-12.21-15.82-16.95-24.67-4.24-7.91-7.62-16.21-11.03-24.49-12.35-30.02-23.68-60.44-34.99-90.86-5.2-13.99-10.44-27.98-15.62-41.98-.43-1.16-1.29-2.28-.7-3.76.77-.05,1.54-.14,2.31-.13,14.16.04,28.32.12,42.47.13,13.63,0,27.27.15,40.89-.68,14.03-.85,27.88-2.91,41.57-6.06,24.56-5.66,47.82-14.78,70.23-26.2,20.52-10.45,39.96-22.69,58.9-35.75,41.03-28.29,78.34-60.83,111.7-97.9,32.9-36.56,61.15-76.44,85.46-119.15,20.53-36.07,38.06-73.57,52.92-112.3,12.23-31.89,23.61-64.04,31.02-97.51,4.91-22.18,9.76-44.38,14.28-66.64,2.66-13.11,5.6-26.14,9.25-39.02,9.46-33.41,27.67-61.04,54.37-83.13.69-.57,1.29-1.25,1.94-1.88.73-.41,1.48-.5,2.26-.13.58,1.07,1.65,1.62,2.53,2.36,11.72,9.81,22.05,20.9,30.85,33.41,10.42,14.82,17.64,31.13,22.79,48.43,4.56,15.33,7.69,30.99,10.91,46.63,2.75,13.35,5.52,26.7,8.4,40.03,1.65,7.61,3.7,15.14,5.27,22.77,1.73,8.4,3.84,16.7,6.25,24.93,8.25,28.19,18.25,55.77,29.25,82.99,17.7,43.81,38.69,85.96,63.8,126.02,26.05,41.55,56.1,79.95,90.67,114.76,22.1,22.26,45.75,42.75,70.97,61.41,21.53,15.93,43.72,30.85,67.21,43.77,23.87,13.13,48.74,23.8,75.18,30.6,14.49,3.73,29.2,6.2,44.12,7.34,14.13,1.08,28.3.91,42.45.94,14.55.03,29.1-.12,43.65-.17,1.15,0,2.33-.23,3.46.3.11,1.22-.48,2.25-.88,3.33-7.38,19.83-14.75,39.67-22.15,59.5-10.44,27.98-21.06,55.89-32.66,83.42-3.74,8.88-8.08,17.44-13.32,25.53-6.19,9.58-13.55,18.07-22.92,24.71-1.59,1.13-3.11,2.35-4.67,3.51-48.74,36.53-100.98,67.05-156.72,91.61-45.72,20.14-92.88,36.08-141.11,48.96-24.08,6.43-48.38,11.93-72.69,17.44-44.32,10.05-88.97,18.4-133.72,26.21-4.34.76-8.66,1.65-12.99,2.48-.87-.13-1.75-.07-2.52.35-.71.38-1.43.26-2.16.3ZM1549.86,1109.92c-1.23-.26-2.47-.03-3.69.12-8.12,1.01-16.26,1.79-24.41,2.49-14.76,1.27-29.55,1.9-44.35,1.87-17.4-.03-34.77-.91-52.1-2.73-14.86-1.56-29.62-3.73-44.26-6.65-34.75-6.93-68.31-17.66-100.7-32.01-35.03-15.52-67.89-34.82-99-57.14-37.38-26.81-71.52-57.32-103.54-90.29-10.41-10.72-20.56-21.67-30.51-32.82-.74-.83-1.36-1.84-2.45-2.32-.89.8-.55,1.77-.59,2.61-.36,6.36-.63,12.72-1.01,19.07-.39,6.5-.3,12.99.42,19.46,1.12,10.14,4.49,19.43,10.71,27.62,2.76,3.63,5.86,6.94,9.25,9.99,14.5,13.03,29.4,25.57,44.8,37.52,34.99,27.15,72.05,51,111.83,70.52,43.45,21.32,88.77,37.16,136.33,46.38,14.16,2.74,28.45,4.55,42.83,5.71,12.04.97,24.11,1.25,36.19,1.15,13.65-.11,27.24-.94,40.81-2.39,15.25-1.63,30.34-4.16,45.33-7.34,5.33-1.13,10.67-2.24,15.68-4.51,3.78-1.71,7.59-3.38,11.37-5.1.43-.19,1.03-.3,1.07-1.2ZM1046.05,1179.66c-.33.89-.6,1.35-.67,1.84-1.2,7.96-2.57,15.9-3.03,23.96-.15,2.63.09,5.21.56,7.75.72,3.91,2.83,6.93,6.28,8.96,1.8,1.06,3.71,1.84,5.7,2.49,4.21,1.38,8.54,2.25,12.88,3.01,13.94,2.44,27.89,4.79,41.83,7.24,21.99,3.87,43.96,7.84,65.96,11.66,21.88,3.8,43.85,6.98,65.93,9.41,14.47,1.59,28.96,2.85,43.49,3.45,17.14.7,34.28.71,51.41-.32,17.52-1.06,34.91-3.11,52.16-6.36,23.94-4.5,47.19-11.29,69.68-20.66,19.72-8.21,38.46-18.26,56.21-30.15,1.13-.76,2.4-1.38,3.5-2.96-2,.72-3.58,1.27-5.14,1.85-24.52,9.04-49.55,16.31-75.15,21.59-16.42,3.38-32.95,5.99-49.61,7.84-12.14,1.35-24.31,2.32-36.51,2.78-11.55.44-23.1.6-34.67.41-16.77-.27-33.49-1.22-50.17-2.82-16.8-1.61-33.53-3.87-50.19-6.65-23.58-3.93-46.93-8.88-70.11-14.67-29.86-7.45-59.35-16.17-88.57-25.84-3.82-1.26-7.65-2.47-11.77-3.81Z"/>
          <path class="cls-2" d="M364.62,942.25c.86.25,1.18-.3,1.31-.96.48-2.29.86-4.6,1.37-6.87,3.75-16.74,8.84-33.11,13.92-49.48,2.27-7.31,4.52-14.64,6.79-21.95.34-1.09.51-2.24,1.25-3.16.61.16.9.57.97,1.12.27,2.19.66,4.38.76,6.57.33,7.95-.22,15.81-1.89,23.63-2.18,10.22-2.81,20.6-1.79,31.02,1.54,15.67,6.91,29.79,17.53,41.65,8.7,9.72,19.5,16.24,31.74,20.46,9.64,3.33,19.6,5.02,29.76,5.55,18.56.96,37.13.73,55.7.26,3.89-.1,7.79-.01,11.71-.01-.16.97-.99,1.04-1.68,1.25-14.91,4.49-29.82,9.01-45.09,12.19-13.64,2.84-27.39,4.59-41.37,4.28-16.02-.36-31.53-3.31-46.2-9.75-18.2-7.99-28.96-22.19-33.2-41.49-.19-.87-.05-1.84-.74-2.57-.06-.33,0-.85-.2-.97-.89-.56-.62-1.4-.67-2.18v-8.58Z"/>
          <path class="cls-1" d="M1635.24,955.51h-.29s-.29,0-.29,0c-.1-1.55-.05-3.07.34-4.59.52-2.01.5-4.12.07-6.08-.37-1.66-.47-3.27-.45-4.93.21,0,.42,0,.63,0v15.6Z"/>
          <path class="cls-1" d="M364.62,950.83c.05.77-.22,1.62.67,2.18.19.12.14.64.2.97-.29,0-.58-.02-.87-.03,0-1.04,0-2.08,0-3.12Z"/>
          <path class="cls-1" d="M1005.39,1410.32c0,.22,0,.44,0,.65h-4.68c.73-.04,1.45.08,2.16-.3.77-.42,1.64-.48,2.52-.35Z"/>
          <path class="cls-1" d="M996.03,1410.98c0-.19,0-.39,0-.58,1.38-.35,2.52.9,3.9.58h-3.9Z"/>
          <path class="cls-1" d="M1001.49,336.27c0,.27,0,.55-.01.82-.78-.37-1.53-.27-2.26.13-.02-.32-.04-.63-.06-.95.78,0,1.56,0,2.34,0Z"/>
          <path class="cls-2" d="M1634.61,939.91c-.02,1.66.08,3.27.45,4.93.43,1.96.45,4.07-.07,6.08-.39,1.52-.44,3.04-.34,4.59-1.88,14.9-13.27,33.92-32.28,42.15-11.76,5.09-24.04,8.18-36.8,9.47-14.72,1.49-29.3.41-43.82-2.12-16.66-2.9-32.86-7.61-49-12.53-1.96-.6-4.05-.85-5.87-2.06.46-.8,1.15-.39,1.68-.39,17.53.13,35.06.76,52.59.3,7.39-.2,14.8-.33,22.16-1.29,12.48-1.63,24.42-4.95,35.36-11.32,19.04-11.09,30.13-27.71,33.98-49.3,2.32-12.99,1.41-25.88-1.21-38.71-1.81-8.85-2.25-17.77-1.21-26.75.13-1.14.07-2.37,1.1-3.22.71.26.79.96.95,1.52,5.3,17.93,11.32,35.63,16.3,53.66,2.28,8.26,4.5,16.53,6.02,24.97Z"/>
        </g>
        <g>
          <path d="M1589.18,1663.4c.53-.04,2.12-.14,2.35-.88.18-.57-.6-1.19-.73-1.46-.88-1.76-2.23-4.45-4.32-8.59-2.57-5.09-20.7-40.94-38.65-76.45-14.18-28.04-28.36-56.08-42.54-84.12-7.64-15.1-15.27-30.2-22.91-45.31-.16-.32-.34-.62-.54-1-.11.21-.15.27-.17.32-6.83,18.17-9.38,36.91-6,56.39.33,1.9.66,3.91,1.5,5.56,14.63,28.96,29.35,57.86,44.04,86.78.12.23.2.48.36.86-.11-.05-.28-.12-.48-.21-13.59-6.02-30.06-13.32-49.82-13.49-22.09-.18-40.52,8.62-49.9,13.1-.58.28-1.06.51-1.38.67.31-.62.48-.99.67-1.35,14.56-28.66,29.12-57.31,43.68-85.97.41-.8.9-2.17,1.09-3.04,1.68-7.89,2.29-15.91,1.97-24-.39-9.86-2.19-19.43-5.14-28.74-.72-2.28-1.54-4.53-2.38-6.98-.27.48-.43.74-.57,1.01-6.72,13.28-15.16,28.54-27.34,52.39-9.87,19.33-19.15,38.95-28.7,58.44-21.7,44.3-22.4,45.68-24.59,49.67-6.54,11.94-12.25,24.32-18.84,36.23-6.38,11.53-10.68,18.59-8.93,20.17,2.15,1.93,11.47-4.89,19.13-11.09,0,0,8.66-5.88,20.75-12.35,6.31-3.38,15.33-8.19,27.6-12.77,13.75-5.13,30.67-11.45,52.56-11.51,26.3-.07,46.98,8.93,62.36,15.63,6.79,2.95,12.31,5.8,16.15,7.89,0,0,.13.08.25.15,11.39,6.76,33.36,24.46,39.49,24.05Z"/>
          <path d="M681.47,1502.56c0,17.42,0,34.85,0,52.27,0,10.34,2.24,20.19,6.41,29.63,3.75,8.51,8.93,16.07,15.51,22.62,10.89,10.85,23.86,17.86,38.98,20.9,6.25,1.25,12.56,1.66,18.88,1.28,15.7-.94,29.82-6.26,42.18-16.01,12.7-10.01,21.36-22.82,25.96-38.34,1.36-4.61,2.32-9.3,2.62-14.11.2-3.2.37-6.42.37-9.62.02-25.07.02-50.14.02-75.21,0-9.65,21.56-30.38,31.63-30.41.95,0,1.19.28,1.19,1.21-.02,36.5.09,73.01-.08,109.51-.06,13.04-2.76,25.64-7.63,37.73-6.4,15.91-16.48,30.14-29.39,41.43-13.8,12.07-29.72,20.21-47.78,24.12-4.64,1-9.38,1.7-14.11,2.11-4.84.42-9.74.62-14.59.37-23.7-1.26-44.89-9.28-63.29-24.34-16.71-13.67-28.3-30.87-34.83-51.46-1.97-6.22-3.31-12.58-4.1-19.07-.56-4.58-.79-9.17-.79-13.79,0-35.43,0-70.86,0-106.29q0-1.52,1.54-1.52c10.01,0,31.3,20.65,31.3,30.32,0,8.88,0,17.77,0,26.65Z"/>
          <path d="M468.19,1629.32c17.42,0,34.85,0,52.27,0,10.34,0,20.19-2.24,29.63-6.41,8.51-3.75,16.07-8.93,22.62-15.51,10.85-10.89,17.86-23.86,20.9-38.98,1.25-6.25,1.66-12.56,1.28-18.88-.94-15.7-6.26-29.82-16.01-42.18-10.01-12.7-22.82-21.36-38.34-25.96-4.61-1.36-9.3-2.32-14.11-2.62-3.2-.2-6.42-.37-9.62-.37-25.07-.02-50.14-.02-75.21-.02-9.65,0-30.38-21.56-30.41-31.63,0-.95.28-1.19,1.21-1.19,36.5.02,73.01-.09,109.51.08,13.04.06,25.64,2.76,37.73,7.63,15.91,6.4,30.14,16.48,41.43,29.39,12.07,13.8,20.21,29.72,24.12,47.78,1,4.64,1.7,9.38,2.11,14.11.42,4.84.62,9.74.37,14.59-1.26,23.7-9.28,44.89-24.34,63.29-13.67,16.71-30.87,28.3-51.46,34.83-6.22,1.97-12.58,3.31-19.07,4.1-4.58.56-9.17.79-13.79.79-35.43,0-70.86,0-106.29,0q-1.52,0-1.52-1.54c0-10.01,20.65-31.3,30.32-31.3,8.88,0,17.77,0,26.65,0Z"/>
          <path d="M924.54,1605.16c0-17.42,0-34.85,0-52.27,0-10.34,2.24-20.19,6.41-29.63,3.75-8.51,8.93-16.07,15.51-22.62,10.89-10.85,23.86-17.86,38.98-20.9,6.25-1.25,12.56-1.66,18.88-1.28,15.7.94,29.82,6.26,42.18,16.01,12.7,10.01,21.36,22.82,25.96,38.34,1.36,4.61,2.32,9.3,2.62,14.11.2,3.2.37,6.42.37,9.62.02,25.07.02,50.14.02,75.21,0,9.65,21.56,30.38,31.63,30.41.95,0,1.19-.28,1.19-1.21-.02-36.5.09-73.01-.08-109.51-.07-13.65-3.02-26.82-8.33-39.43-6.06-14.4-14.81-26.96-26.28-37.56-14.35-13.27-31.07-22.15-50.2-26.29-4.64-1-9.38-1.7-14.11-2.11-4.84-.42-9.74-.62-14.59-.37-23.7,1.26-44.89,9.28-63.29,24.34-16.71,13.67-28.3,30.87-34.83,51.46-1.97,6.22-3.31,12.58-4.1,19.07-.56,4.58-.79,9.17-.79,13.79,0,35.43,0,70.86,0,106.29q0,1.52,1.54,1.52c10.01,0,31.3-20.65,31.3-30.32,0-8.88,0-17.77,0-26.65Z"/>
          <path d="M1363.73,1538.68h-31.22s.01.08.02.12c-39.97.12-94.37.33-103.27.33-.91,0-1.18.22-1.18,1.11.03,9.38,20.27,29.43,29.69,29.43,8.58,0,17.16,0,25.74,0,12.46.06,46.27.08,46.27.08,0,0,1.11.03,2.59,0-7.83,36.5-42.11,63.98-83.21,63.98-46.88,0-84.89-35.76-84.89-79.87,0-46.52,45.43-77.27,84.89-79.87,46.7-3.08,77.36,33.76,80.58,37.76,1.7-10.34,3.4-20.67,5.1-31.01-21.16-21.94-51.7-35.73-85.68-35.73-63.89,0-115.69,48.73-115.69,108.85s51.8,108.85,115.69,108.85,115.69-48.73,115.69-108.85c0-5.15-.39-10.22-1.13-15.18Z"/>
          <circle cx="497.33" cy="1553.86" r="16.42"/>
        </g>
      </g>
    </g>
  </g>
</svg>