<?xml version="1.0" encoding="UTF-8"?>
<svg xmlns="http://www.w3.org/2000/svg" version="1.1" viewBox="0 0 512 512">
  <!-- Generator: Adobe Illustrator 28.7.1, SVG Export Plug-In . SVG Version: 1.2.0 Build 142)  -->
  <g>
    <g id="Layer_1">
      <g id="Layer_2">
        <g id="Layer_1_copy_7">
          <g id="_125">
            <path d="M180.4,128.7c-12.5-12.5-32.8-12.5-45.4,0h0c-46.3,46.4-46.3,121.5,0,167.9,12.5,12.5,32.9,12.5,45.4,0,12.5-12.5,12.5-32.9,0-45.4-21.3-21.3-21.3-55.8,0-77.1,12.5-12.5,12.5-32.8,0-45.4h0Z"/>
            <path d="M497.7,453.4l-116.2-116.2c26.8-35.9,41.2-79.6,41.2-124.4,0-115.3-93.8-209.1-209-209.1S4.6,97.4,4.6,212.6s93.8,209,209,209c43.9,0,86.6-13.8,122.2-39.5l116.5,116.5c12,13,32.3,13.8,45.3,1.8,13-12,13.8-32.3,1.8-45.3-.6-.6-1.2-1.2-1.8-1.8ZM68.8,212.6c0-80,64.8-144.8,144.8-144.8,80,0,144.8,64.8,144.8,144.8s-64.8,144.8-144.8,144.8c-80,0-144.8-64.9-144.8-144.8Z"/>
          </g>
        </g>
      </g>
    </g>
  </g>
</svg>