<?xml version="1.0" encoding="UTF-8"?>
<svg xmlns="http://www.w3.org/2000/svg" version="1.1" viewBox="0 0 512 512">
  <!-- Generator: Adobe Illustrator 28.7.1, SVG Export Plug-In . SVG Version: 1.2.0 Build 142)  -->
  <g>
    <g id="Layer_1">
      <g id="Layer_1-2" data-name="Layer_1">
        <path d="M256,0C114.8,0,0,114.8,0,256s114.8,256,256,256,256-114.8,256-256S397.2,0,256,0ZM397.9,208.4h59.3c3.6,15.6,5.5,31.5,5.5,47.6s-1.9,32.1-5.5,47.6h-59.3c1.6-15.6,2.5-31.7,2.5-47.6s-.9-32-2.5-47.6ZM280.6,303.6v-95.2h67.8c1.7,15.6,2.7,31.5,2.7,47.6s-.9,32.1-2.7,47.6h-67.8ZM390.1,159.2c-6.5-28.9-15.8-55.1-27.5-78-.6-1.2-1.3-2.5-1.9-3.6,33,19.4,60.2,47.6,78.2,81.6h-48.9ZM280.6,159.2V57.3c13.7,9,27,25,38.2,46.6,8.4,16.2,15.3,34.9,20.7,55.4h-58.9,0ZM339.5,352.8c-5.4,20.5-12.3,39.2-20.7,55.4-11.1,21.4-24.4,37.6-38.2,46.6v-102h58.9,0ZM360.6,434.3c.6-1.2,1.3-2.5,1.9-3.6,11.9-22.9,21.1-49,27.5-78h48.7c-18.1,34-45.1,62.2-78.2,81.6h.1ZM231.4,208.4v95.2h-67.8c-1.7-15.6-2.7-31.5-2.7-47.6s.9-32.1,2.7-47.6h67.8ZM149.6,81.1c-11.9,22.9-21.1,49-27.5,78h-48.7c18.1-34,45.1-62.2,78.2-81.6-.6,1.2-1.3,2.5-1.9,3.6h-.1ZM114.1,303.6h-59.3c-3.6-15.6-5.5-31.5-5.5-47.6s1.9-32.1,5.5-47.6h59.3c-1.6,15.6-2.5,31.7-2.5,47.6s.9,32,2.5,47.6ZM122.1,352.8c6.5,28.9,15.8,55.1,27.5,78,.6,1.2,1.3,2.5,1.9,3.6-33-19.4-60.2-47.6-78.2-81.6h48.9ZM231.4,352.8v102c-13.7-9-27-25-38.2-46.6-8.4-16.2-15.3-34.9-20.7-55.4h58.9ZM172.5,159.2c5.4-20.5,12.3-39.2,20.7-55.4,11.1-21.4,24.4-37.6,38.2-46.6v102h-58.9Z"/>
      </g>
    </g>
  </g>
</svg>